<svg xmlns="http://www.w3.org/2000/svg" viewBox="0 0 1200 800" role="img" aria-label="Coastal Curry Cart advert artwork">
  <defs>
    <linearGradient id="bg" x1="0" y1="0" x2="1" y2="1">
      <stop offset="0" stop-color="#034b5c"/>
      <stop offset="0.6" stop-color="#0094c8"/>
      <stop offset="1" stop-color="#f3d69a"/>
    </linearGradient>
  </defs>
  <rect width="1200" height="800" fill="url(#bg)"/>
  <path d="M0 620c150-35 260-35 410 0s260 35 410 0 250-35 380 0v180H0z" fill="#fff5"/>
  <circle cx="820" cy="395" r="230" fill="#fff9"/>
  <path d="M645 500h350l-45 70H690z" fill="#d96a1d"/>
  <rect x="680" y="300" width="275" height="215" rx="32" fill="#fff0d7" stroke="#d96a1d" stroke-width="12"/>
  <path d="M720 355h195M720 415h195" stroke="#7b2d12" stroke-width="18" stroke-linecap="round"/>
  <circle cx="735" cy="575" r="38" fill="#2e1c12"/>
  <circle cx="915" cy="575" r="38" fill="#2e1c12"/>
  <text x="105" y="235" fill="#fff" font-family="Georgia,serif" font-size="70" font-weight="700">Coastal</text>
  <text x="105" y="312" fill="#fff" font-family="Georgia,serif" font-size="70" font-weight="700">Curry Cart</text>
  <text x="110" y="365" fill="#fff9" font-family="Arial,sans-serif" font-size="28">Seafood curry, rotis and beach-day trays</text>
  <rect x="110" y="610" width="305" height="58" rx="29" fill="#fff"/>
  <text x="262" y="647" text-anchor="middle" fill="#007aa3" font-family="Arial,sans-serif" font-size="24" font-weight="700">Standard Seller</text>
</svg>
