<svg xmlns="http://www.w3.org/2000/svg" viewBox="0 0 1200 800" role="img" aria-label="Thandi's Spice Pot advert artwork">
  <defs>
    <linearGradient id="bg" x1="0" y1="0" x2="1" y2="1">
      <stop offset="0" stop-color="#7b2d12"/>
      <stop offset="0.55" stop-color="#d96a1d"/>
      <stop offset="1" stop-color="#f5b55b"/>
    </linearGradient>
    <radialGradient id="plate" cx="50%" cy="45%" r="55%">
      <stop offset="0" stop-color="#fff8ea"/>
      <stop offset="1" stop-color="#e9d6b8"/>
    </radialGradient>
  </defs>
  <rect width="1200" height="800" fill="url(#bg)"/>
  <circle cx="865" cy="160" r="150" fill="#fff3" />
  <circle cx="600" cy="420" r="250" fill="url(#plate)" stroke="#fff6" stroke-width="18"/>
  <circle cx="600" cy="420" r="175" fill="#c4461a"/>
  <path d="M460 390c90-95 210-96 284 0 32 42 30 114-6 154-72 82-206 80-276-2-36-42-38-109-2-152z" fill="#612413"/>
  <circle cx="528" cy="410" r="34" fill="#f2c14e"/>
  <circle cx="636" cy="485" r="42" fill="#f7d28b"/>
  <circle cx="700" cy="408" r="30" fill="#8fa860"/>
  <path d="M305 165h370" stroke="#fff8" stroke-width="5"/>
  <text x="300" y="245" fill="#fff" font-family="Georgia,serif" font-size="74" font-weight="700">Thandi's</text>
  <text x="300" y="322" fill="#fff" font-family="Georgia,serif" font-size="74" font-weight="700">Spice Pot</text>
  <text x="304" y="375" fill="#fff8" font-family="Arial,sans-serif" font-size="28">Bunny chow, breyani and Durban curries</text>
  <rect x="302" y="610" width="350" height="58" rx="29" fill="#fff"/>
  <text x="477" y="648" text-anchor="middle" fill="#c4461a" font-family="Arial,sans-serif" font-size="24" font-weight="700">Platinum Seller</text>
</svg>
